<?xml version="1.0" encoding="UTF-8"?>
<svg version="1.1" xmlns="http://www.w3.org/2000/svg" width="192" height="192">
<path d="M0 0 C20.7920007 16.11380054 34.57013757 37.98989486 38.375 64.125 C40.15486656 94.10777284 34.78006524 120.0632174 14.375 143.125 C-1.2206365 160.15471801 -23.11255297 172.90732014 -46.60668945 174.30200195 C-77.40756755 174.90471657 -101.87142265 169.13090768 -125.22265625 147.74609375 C-141.75291633 131.81421412 -153.4079244 109.28208674 -153.86328125 86.01171875 C-154.33908394 55.07808491 -146.64944501 30.65945938 -124.75 7.9375 C-91.25433556 -24.6432601 -37.55051127 -26.82179376 0 0 Z " fill="#FDFEFE" transform="translate(153.625,17.875)"/>
<path d="M0 0 C7.35184739 6.252734 16.20157996 14.40732476 17.96875 24.34765625 C18.24068044 30.95329985 16.32078301 36.42507548 12.6875 41.875 C7.98610261 46.71467378 3.27839639 48.18930567 -3.3125 48.3125 C-4.13492188 48.33828125 -4.95734375 48.3640625 -5.8046875 48.390625 C-12.21153002 47.59214611 -15.83168638 43.92249685 -19.8125 39.1875 C-26.57260822 31.50597663 -32.93582978 26.70240625 -43.4140625 25.80859375 C-52.62324644 25.47430253 -59.93133181 27.05199988 -67.25 32.8125 C-73.06534809 38.24381567 -76.89532514 45.15140444 -77.7734375 53.10546875 C-77.90264905 63.50699814 -76.06057225 72.60927053 -68.58984375 80.26953125 C-60.72527872 86.82095656 -52.45716252 89.32219509 -42.328125 88.62109375 C-31.74707091 87.10192635 -25.26981637 81.65355519 -18.70800781 73.64575195 C-14.38089977 68.46284149 -10.38115632 66.34284822 -3.5 65.6875 C3.22703753 66.02515053 7.86789799 67.92323692 12.4375 72.9375 C16.68647413 78.28017362 18.16860725 82.53691791 17.99609375 89.38671875 C16.2348602 100.25559247 5.6064324 109.97895037 -2.75 116.3125 C-20.73416842 128.66727498 -39.41683643 132.25196259 -60.8125 129.375 C-79.24427118 125.7191115 -95.93990804 114.44552784 -106.5546875 99.08203125 C-115.00959706 85.5226016 -118.97119906 73.26148791 -118.875 57.1875 C-118.89498047 56.01058594 -118.91496094 54.83367187 -118.93554688 53.62109375 C-118.92527105 34.93964834 -110.74694152 17.8254867 -97.90673828 4.50830078 C-70.90062363 -22.06700846 -29.31445875 -22.42220432 0 0 Z " fill="#0283FE" transform="translate(141.4375,38.9375)"/>
<path d="M0 0 C19.12686236 0.84632134 36.41395452 10.60044095 49.3125 24.4375 C54.53804749 30.61700139 58.88680965 36.40577973 58.359375 44.80078125 C57.38639179 50.75501548 55.23995663 55.63533877 51 60 C46.46240993 63.17631305 42.60861117 64.14750259 37.125 64.25 C36.30257812 64.27578125 35.48015625 64.3015625 34.6328125 64.328125 C28.22667844 63.52973441 24.60472733 59.86056421 20.625 55.125 C15.4302223 49.20293569 10.82687588 44.95671897 3 43 C3 29.14 3 15.28 3 1 C2.01 0.67 1.02 0.34 0 0 Z " fill="#01BCFC" transform="translate(101,23)"/>
<path d="M0 0 C4.56611563 2.75242898 7.67096206 7.05487754 10.39453125 11.5546875 C11.78716083 18.05362555 11.87315593 23.2806524 8.51953125 29.1796875 C-2.12041594 45.04016953 -17.04581624 55.86023752 -35.54296875 60.6171875 C-36.22576904 60.7934668 -36.90856934 60.96974609 -37.61206055 61.15136719 C-41.04012161 61.95837123 -43.70296908 62.48330982 -47.04296875 61.1796875 C-46.05296875 61.1796875 -45.06296875 61.1796875 -44.04296875 61.1796875 C-44.04296875 47.6496875 -44.04296875 34.1196875 -44.04296875 20.1796875 C-40.41296875 18.1996875 -36.78296875 16.2196875 -33.04296875 14.1796875 C-30.73080579 11.95383831 -28.7765798 9.9517512 -26.79296875 7.4921875 C-19.6796256 -1.21177821 -10.85613677 -4.4966247 0 0 Z " fill="#00BCFC" transform="translate(148.04296875,106.8203125)"/>
<path d="M0 0 C0.33 0 0.66 0 1 0 C1 36.63 1 73.26 1 111 C-8.0642485 105.5614509 -13.73852159 97.2386051 -18.4375 87.9375 C-18.91376831 87.00224487 -18.91376831 87.00224487 -19.3996582 86.0480957 C-24.2418365 75.9488439 -25.50408228 66.25029385 -25.4375 55.125 C-25.45748047 53.94808594 -25.47746094 52.77117187 -25.49804688 51.55859375 C-25.4918793 40.34594203 -22.63499795 30.50834471 -17.5625 20.5625 C-17.00691406 19.45003906 -16.45132812 18.33757813 -15.87890625 17.19140625 C-12.88379973 12.10408395 -9.27052161 8.00923869 -4.75 4.1875 C-4.06421875 3.60355469 -3.3784375 3.01960938 -2.671875 2.41796875 C-2.12015625 1.95003906 -1.5684375 1.48210938 -1 1 C-0.67 0.67 -0.34 0.34 0 0 Z " fill="#0167FF" transform="translate(48,41)"/>
<path d="M0 0 C0 13.53 0 27.06 0 41 C-5.28 41 -10.56 41 -16 41 C-19.63 42.32 -23.26 43.64 -27 45 C-27 30.81 -27 16.62 -27 2 C-27.66 1.67 -28.32 1.34 -29 1 C-19.86863355 -0.87310081 -9.04457864 -3.01485955 0 0 Z " fill="#00A0FD" transform="translate(104,24)"/>
<path d="M0 0 C3.63 1.65 7.26 3.3 11 5 C16.61 5 22.22 5 28 5 C28 18.53 28 32.06 28 46 C18.95542136 49.01485955 8.13136645 46.87310081 -1 45 C-0.01 44.505 -0.01 44.505 1 44 C0.67 29.48 0.34 14.96 0 0 Z " fill="#01A0FD" transform="translate(76,122)"/>
<path d="M0 0 C11.51024164 4.398689 21.54855717 14.85277154 27.15625 25.74609375 C29.39645478 31.73034448 28.36242693 37.46004325 25.9140625 43.21484375 C23.5316006 47.86777147 20.65266652 50.67366674 16 53 C12.94325473 53.94103623 10.13002153 54.16342367 6.9375 54.1875 C6.08027344 54.20167969 5.22304687 54.21585938 4.33984375 54.23046875 C2 54 2 54 -1 52 C-1.32279968 49.78536987 -1.32279968 49.78536987 -1.2487793 46.99951172 C-1.22853195 45.95858368 -1.20828461 44.91765564 -1.18742371 43.84518433 C-1.15006607 42.71807037 -1.11270844 41.59095642 -1.07421875 40.4296875 C-1.04777786 39.27832306 -1.02133698 38.12695862 -0.99409485 36.94070435 C-0.90609877 33.25162248 -0.79702854 29.56349941 -0.6875 25.875 C-0.62426564 23.37894096 -0.56239881 20.88284688 -0.50195312 18.38671875 C-0.35052036 12.25731712 -0.18176718 6.12857296 0 0 Z " fill="#03D9FB" transform="translate(131,33)"/>
<path d="M0 0 C4.56611563 2.75242898 7.67096206 7.05487754 10.39453125 11.5546875 C11.78716083 18.05362555 11.87315593 23.2806524 8.51953125 29.1796875 C2.22474841 38.56303201 -5.3731473 46.26208737 -15.04296875 52.1796875 C-15.70296875 52.1796875 -16.36296875 52.1796875 -17.04296875 52.1796875 C-17.04296875 34.6896875 -17.04296875 17.1996875 -17.04296875 -0.8203125 C-11.26096827 -2.74764599 -5.58293178 -2.31245695 0 0 Z " fill="#04D9FB" transform="translate(148.04296875,106.8203125)"/>
</svg>
