<?xml version="1.0" encoding="UTF-8"?>
<svg id="uuid-1fec0efb-26b9-4f40-aa32-c4f49bb79ae0" xmlns="http://www.w3.org/2000/svg" viewBox="0 0 200 200">
  <polygon points="116.67 38.49 105.56 38.49 111.11 48.11 116.67 38.49" style="fill: none; stroke-width: 0px;"/>
  <polygon points="122.22 182.83 127.78 173.21 116.67 173.21 122.22 182.83" style="fill: none; stroke-width: 0px;"/>
  <polygon points="144.44 182.83 150 173.21 138.89 173.21 144.44 182.83" style="fill: none; stroke-width: 0px;"/>
  <polygon points="138.89 38.49 127.78 38.49 133.33 48.11 138.89 38.49" style="fill: none; stroke-width: 0px;"/>
  <polygon points="144.44 67.36 150 57.73 138.89 57.73 144.44 67.36" style="fill: none; stroke-width: 0px;"/>
  <polygon points="100 182.83 105.56 173.21 94.44 173.21 100 182.83" style="fill: none; stroke-width: 0px;"/>
  <polygon points="44.44 48.11 38.89 57.73 50 57.73 44.44 48.11" style="fill: none; stroke-width: 0px;"/>
  <polygon points="77.78 182.83 83.33 173.21 72.22 173.21 77.78 182.83" style="fill: none; stroke-width: 0px;"/>
  <polygon points="94.44 38.49 83.33 38.49 88.89 48.11 94.44 38.49" style="fill: none; stroke-width: 0px;"/>
  <polygon points="172.22 173.21 161.11 173.21 166.67 182.83 172.22 173.21" style="fill: none; stroke-width: 0px;"/>
  <polygon points="172.22 153.96 166.67 144.34 161.11 153.96 172.22 153.96" style="fill: none; stroke-width: 0px;"/>
  <polygon points="161.11 173.21 155.56 163.58 150 173.21 161.11 173.21" style="fill: none; stroke-width: 0px;"/>
  <polygon points="72.22 38.49 61.11 38.49 66.67 48.11 72.22 38.49" style="fill: none; stroke-width: 0px;"/>
  <polygon points="138.89 134.72 133.33 125.09 127.78 134.72 138.89 134.72" style="fill: none; stroke-width: 0px;"/>
  <polygon points="27.78 134.72 33.33 144.34 38.89 134.72 27.78 134.72" style="fill: none; stroke-width: 0px;"/>
  <polygon points="27.78 153.96 38.89 153.96 33.33 144.34 27.78 153.96" style="fill: none; stroke-width: 0px;"/>
  <polygon points="16.67 38.49 22.22 48.11 27.78 38.49 16.67 38.49" style="fill: none; stroke-width: 0px;"/>
  <polygon points="116.67 153.96 127.78 153.96 122.22 144.34 116.67 153.96" style="fill: none; stroke-width: 0px;"/>
  <polygon points="72.22 153.96 83.33 153.96 77.78 144.34 72.22 153.96" style="fill: none; stroke-width: 0px;"/>
  <polygon points="27.78 115.47 38.89 115.47 33.33 105.85 27.78 115.47" style="fill: none; stroke-width: 0px;"/>
  <polygon points="94.44 153.96 105.56 153.96 100 144.34 94.44 153.96" style="fill: none; stroke-width: 0px;"/>
  <polygon points="38.89 76.98 44.44 86.6 50 76.98 38.89 76.98" style="fill: none; stroke-width: 0px;"/>
  <polygon points="33.33 182.83 38.89 173.21 27.78 173.21 33.33 182.83" style="fill: none; stroke-width: 0px;"/>
  <polygon points="55.56 182.83 61.11 173.21 50 173.21 55.56 182.83" style="fill: none; stroke-width: 0px;"/>
  <polygon points="138.89 96.23 133.33 86.6 127.78 96.23 138.89 96.23" style="fill: none; stroke-width: 0px;"/>
  <polygon points="38.89 173.21 50 173.21 44.44 163.58 38.89 173.21" style="fill: none; stroke-width: 0px;"/>
  <polygon points="133.33 125.09 138.89 115.47 127.78 115.47 133.33 125.09" style="fill: none; stroke-width: 0px;"/>
  <polygon points="166.67 67.36 172.22 57.73 161.11 57.73 166.67 67.36" style="fill: none; stroke-width: 0px;"/>
  <polygon points="177.78 48.11 183.33 38.49 172.22 38.49 177.78 48.11" style="fill: none; stroke-width: 0px;"/>
  <polygon points="27.78 96.23 33.33 105.85 38.89 96.23 27.78 96.23" style="fill: none; stroke-width: 0px;"/>
  <polygon points="172.22 19.24 161.11 19.24 166.67 28.87 172.22 19.24" style="fill: none; stroke-width: 0px;"/>
  <polygon points="155.56 86.6 161.11 76.98 150 76.98 155.56 86.6" style="fill: none; stroke-width: 0px;"/>
  <polygon points="172.22 134.72 161.11 134.72 166.67 144.34 172.22 134.72" style="fill: none; stroke-width: 0px;"/>
  <polygon points="155.56 125.09 161.11 115.47 150 115.47 155.56 125.09" style="fill: none; stroke-width: 0px;"/>
  <polygon points="161.11 96.23 155.56 86.6 150 96.23 161.11 96.23" style="fill: none; stroke-width: 0px;"/>
  <polygon points="61.11 19.24 50 19.24 55.56 28.87 61.11 19.24" style="fill: none; stroke-width: 0px;"/>
  <polygon points="38.89 19.24 27.78 19.24 33.33 28.87 38.89 19.24" style="fill: none; stroke-width: 0px;"/>
  <polygon points="127.78 19.24 116.67 19.24 122.22 28.87 127.78 19.24" style="fill: none; stroke-width: 0px;"/>
  <polygon points="161.11 134.72 155.56 125.09 150 134.72 161.11 134.72" style="fill: none; stroke-width: 0px;"/>
  <polygon points="105.56 19.24 94.44 19.24 100 28.87 105.56 19.24" style="fill: none; stroke-width: 0px;"/>
  <polygon points="83.33 19.24 72.22 19.24 77.78 28.87 83.33 19.24" style="fill: none; stroke-width: 0px;"/>
  <polygon points="150 19.24 138.89 19.24 144.44 28.87 150 19.24" style="fill: none; stroke-width: 0px;"/>
  <polygon points="172.22 96.23 161.11 96.23 166.67 105.85 172.22 96.23" style="fill: none; stroke-width: 0px;"/>
  <polygon points="44.44 125.09 38.89 134.72 50 134.72 44.44 125.09" style="fill: none; stroke-width: 0px;"/>
  <polygon points="172.22 76.98 166.67 67.36 161.11 76.98 172.22 76.98" style="fill: none; stroke-width: 0px;"/>
  <polygon points="38.89 115.47 44.44 125.09 50 115.47 38.89 115.47" style="fill: none; stroke-width: 0px;"/>
  <polygon points="172.22 115.47 166.67 105.85 161.11 115.47 172.22 115.47" style="fill: none; stroke-width: 0px;"/>
  <polygon points="44.44 86.6 38.89 96.23 50 96.23 44.44 86.6" style="fill: none; stroke-width: 0px;"/>
  <polygon points="38.89 153.96 44.44 163.58 50 153.96 38.89 153.96" style="fill: none; stroke-width: 0px;"/>
  <polygon points="105.56 173.21 116.67 173.21 111.11 163.58 105.56 173.21" style="fill: none; stroke-width: 0px;"/>
  <polygon points="83.33 173.21 94.44 173.21 88.89 163.58 83.33 173.21" style="fill: none; stroke-width: 0px;"/>
  <polygon points="127.78 173.21 138.89 173.21 133.33 163.58 127.78 173.21" style="fill: none; stroke-width: 0px;"/>
  <polygon points="155.56 163.58 161.11 153.96 150 153.96 155.56 163.58" style="fill: none; stroke-width: 0px;"/>
  <polygon points="61.11 173.21 72.22 173.21 66.67 163.58 61.11 173.21" style="fill: none; stroke-width: 0px;"/>
  <polygon points="161.11 38.49 150 38.49 155.56 48.11 161.11 38.49" style="fill: none; stroke-width: 0px;"/>
  <polygon points="133.33 86.6 138.89 76.98 127.78 76.98 133.33 86.6" style="fill: none; stroke-width: 0px;"/>
  <polygon points="88.89 48.11 83.33 57.73 94.44 57.73 88.89 48.11" style="fill: none; stroke-width: 0px;"/>
  <polygon points="111.11 48.11 105.56 57.73 116.67 57.73 111.11 48.11" style="fill: none; stroke-width: 0px;"/>
  <polygon points="133.33 48.11 127.78 57.73 138.89 57.73 133.33 48.11" style="fill: none; stroke-width: 0px;"/>
  <polygon points="50 57.73 55.56 67.36 61.11 57.73 50 57.73" style="fill: none; stroke-width: 0px;"/>
  <polygon points="50 76.98 61.11 76.98 55.56 67.36 50 76.98" style="fill: none; stroke-width: 0px;"/>
  <polygon points="50 96.23 55.56 105.85 61.11 96.23 50 96.23" style="fill: none; stroke-width: 0px;"/>
  <polygon points="127.78 57.73 116.67 57.73 122.22 67.36 127.78 57.73" style="fill: none; stroke-width: 0px;"/>
  <polygon points="66.67 48.11 61.11 57.73 72.22 57.73 66.67 48.11" style="fill: none; stroke-width: 0px;"/>
  <polygon points="127.78 134.72 116.67 134.72 122.22 144.34 127.78 134.72" style="fill: none; stroke-width: 0px;"/>
  <polygon points="127.78 76.98 122.22 67.36 116.67 76.98 127.78 76.98" style="fill: none; stroke-width: 0px;"/>
  <polygon points="100 144.34 105.56 134.72 94.44 134.72 100 144.34" style="fill: none; stroke-width: 0px;"/>
  <polygon points="116.67 134.72 111.11 125.09 105.56 134.72 116.67 134.72" style="fill: none; stroke-width: 0px;"/>
  <polygon points="127.78 96.23 116.67 96.23 122.22 105.85 127.78 96.23" style="fill: none; stroke-width: 0px;"/>
  <polygon points="127.78 115.47 122.22 105.85 116.67 115.47 127.78 115.47" style="fill: none; stroke-width: 0px;"/>
  <polygon points="150 96.23 138.89 96.23 144.44 105.85 150 96.23" style="fill: none; stroke-width: 0px;"/>
  <polygon points="77.78 144.34 83.33 134.72 72.22 134.72 77.78 144.34" style="fill: none; stroke-width: 0px;"/>
  <polygon points="150 115.47 144.44 105.85 138.89 115.47 150 115.47" style="fill: none; stroke-width: 0px;"/>
  <polygon points="150 134.72 138.89 134.72 144.44 144.34 150 134.72" style="fill: none; stroke-width: 0px;"/>
  <polygon points="161.11 57.73 155.56 48.11 150 57.73 161.11 57.73" style="fill: none; stroke-width: 0px;"/>
  <polygon points="150 76.98 144.44 67.36 138.89 76.98 150 76.98" style="fill: none; stroke-width: 0px;"/>
  <polygon points="150 153.96 144.44 144.34 138.89 153.96 150 153.96" style="fill: none; stroke-width: 0px;"/>
  <polygon points="50 134.72 55.56 144.34 61.11 134.72 50 134.72" style="fill: none; stroke-width: 0px;"/>
  <polygon points="66.67 163.58 72.22 153.96 61.11 153.96 66.67 163.58" style="fill: none; stroke-width: 0px;"/>
  <polygon points="50 153.96 61.11 153.96 55.56 144.34 50 153.96" style="fill: none; stroke-width: 0px;"/>
  <polygon points="50 115.47 61.11 115.47 55.56 105.85 50 115.47" style="fill: none; stroke-width: 0px;"/>
  <polygon points="88.89 163.58 94.44 153.96 83.33 153.96 88.89 163.58" style="fill: none; stroke-width: 0px;"/>
  <polygon points="133.33 163.58 138.89 153.96 127.78 153.96 133.33 163.58" style="fill: none; stroke-width: 0px;"/>
  <polygon points="111.11 163.58 116.67 153.96 105.56 153.96 111.11 163.58" style="fill: none; stroke-width: 0px;"/>
  <polygon points="27.78 57.73 33.33 67.36 38.89 57.73 27.78 57.73" style="fill: none; stroke-width: 0px;"/>
  <polygon points="38.89 38.49 44.44 48.11 50 38.49 38.89 38.49" style="fill: none; stroke-width: 0px;"/>
  <polygon points="83.33 57.73 72.22 57.73 77.78 67.36 83.33 57.73" style="fill: none; stroke-width: 0px;"/>
  <polygon points="105.56 57.73 94.44 57.73 100 67.36 105.56 57.73" style="fill: none; stroke-width: 0px;"/>
  <polygon points="55.56 28.87 50 38.49 61.11 38.49 55.56 28.87" style="fill: none; stroke-width: 0px;"/>
  <polygon points="100 28.87 94.44 38.49 105.56 38.49 100 28.87" style="fill: none; stroke-width: 0px;"/>
  <polygon points="111.11 86.6 116.67 76.98 105.56 76.98 111.11 86.6" style="fill: none; stroke-width: 0px;"/>
  <polygon points="77.78 28.87 72.22 38.49 83.33 38.49 77.78 28.87" style="fill: none; stroke-width: 0px;"/>
  <polygon points="27.78 76.98 38.89 76.98 33.33 67.36 27.78 76.98" style="fill: none; stroke-width: 0px;"/>
  <polygon points="61.11 115.47 66.67 125.09 72.22 115.47 61.11 115.47" style="fill: none; stroke-width: 0px;"/>
  <polygon points="116.67 96.23 111.11 86.6 105.56 96.23 116.67 96.23" style="fill: none; stroke-width: 0px;"/>
  <polygon points="66.67 125.09 61.11 134.72 72.22 134.72 66.67 125.09" style="fill: none; stroke-width: 0px;"/>
  <polygon points="66.67 86.6 61.11 96.23 72.22 96.23 66.67 86.6" style="fill: none; stroke-width: 0px;"/>
  <polygon points="27.78 38.49 38.89 38.49 33.33 28.87 27.78 38.49" style="fill: none; stroke-width: 0px;"/>
  <polygon points="61.11 76.98 66.67 86.6 72.22 76.98 61.11 76.98" style="fill: none; stroke-width: 0px;"/>
  <polygon points="111.11 125.09 116.67 115.47 105.56 115.47 111.11 125.09" style="fill: none; stroke-width: 0px;"/>
  <polygon points="72.22 76.98 83.33 76.98 77.78 67.36 72.22 76.98" style="fill: none; stroke-width: 0px;"/>
  <polygon points="83.33 76.98 88.89 86.6 94.44 76.98 83.33 76.98" style="fill: none; stroke-width: 0px;"/>
  <polygon points="88.89 86.6 83.33 96.23 94.44 96.23 88.89 86.6" style="fill: none; stroke-width: 0px;"/>
  <polygon points="100 67.36 94.44 76.98 105.56 76.98 100 67.36" style="fill: none; stroke-width: 0px;"/>
  <polygon points="72.22 115.47 83.33 115.47 77.78 105.85 72.22 115.47" style="fill: none; stroke-width: 0px;"/>
  <polygon points="72.22 96.23 77.78 105.85 83.33 96.23 72.22 96.23" style="fill: none; stroke-width: 0px;"/>
  <polygon points="83.33 115.47 88.89 125.09 94.44 115.47 83.33 115.47" style="fill: none; stroke-width: 0px;"/>
  <polygon points="144.44 28.87 138.89 38.49 150 38.49 144.44 28.87" style="fill: none; stroke-width: 0px;"/>
  <polygon points="83.33 134.72 94.44 134.72 88.89 125.09 83.33 134.72" style="fill: none; stroke-width: 0px;"/>
  <polygon points="122.22 28.87 116.67 38.49 127.78 38.49 122.22 28.87" style="fill: none; stroke-width: 0px;"/>
  <polygon points="166.67 28.87 161.11 38.49 172.22 38.49 166.67 28.87" style="fill: none; stroke-width: 0px;"/>
  <polygon points="105.56 115.47 100 105.85 94.44 115.47 105.56 115.47" style="fill: none; stroke-width: 0px;"/>
  <polygon points="105.56 96.23 94.44 96.23 100 105.85 105.56 96.23" style="fill: none; stroke-width: 0px;"/>
  <polygon points="183.33 57.73 177.78 48.11 172.22 57.73 183.33 57.73" style="fill: none; stroke-width: 0px;"/>
  <polygon points="177.78 125.09 183.33 115.47 172.22 115.47 177.78 125.09" style="fill: none; stroke-width: 0px;"/>
  <polygon points="11.11 182.83 5.56 192.45 16.67 192.45 11.11 182.83" style="fill: none; stroke-width: 0px;"/>
  <polygon points="183.33 134.72 177.78 125.09 172.22 134.72 183.33 134.72" style="fill: none; stroke-width: 0px;"/>
  <polygon points="177.78 163.58 183.33 153.96 172.22 153.96 177.78 163.58" style="fill: none; stroke-width: 0px;"/>
  <polygon points="183.33 96.23 177.78 86.6 172.22 96.23 183.33 96.23" style="fill: none; stroke-width: 0px;"/>
  <polygon points="16.67 173.21 5.56 173.21 11.11 182.83 16.67 173.21" style="fill: none; stroke-width: 0px;"/>
  <polygon points="177.78 86.6 183.33 76.98 172.22 76.98 177.78 86.6" style="fill: none; stroke-width: 0px;"/>
  <polygon points="27.78 192.45 16.67 192.45 21.03 200 22.22 202.07 23.42 200 27.78 192.45" style="fill: none; stroke-width: 0px;"/>
  <polygon points="183.33 173.21 177.78 163.58 172.22 173.21 183.33 173.21" style="fill: none; stroke-width: 0px;"/>
  <polygon points="116.67 192.45 127.78 192.45 122.22 182.83 116.67 192.45" style="fill: none; stroke-width: 0px;"/>
  <polygon points="72.22 192.45 83.33 192.45 77.78 182.83 72.22 192.45" style="fill: none; stroke-width: 0px;"/>
  <polygon points="94.44 192.45 105.56 192.45 100 182.83 94.44 192.45" style="fill: none; stroke-width: 0px;"/>
  <polygon points="94.44 192.45 83.33 192.45 87.69 200 88.89 202.07 90.09 200 94.44 192.45" style="fill: none; stroke-width: 0px;"/>
  <polygon points="138.89 192.45 150 192.45 144.44 182.83 138.89 192.45" style="fill: none; stroke-width: 0px;"/>
  <polygon points="161.11 192.45 172.22 192.45 166.67 182.83 161.11 192.45" style="fill: none; stroke-width: 0px;"/>
  <polygon points="50 192.45 38.89 192.45 43.25 200 44.44 202.07 45.64 200 50 192.45" style="fill: none; stroke-width: 0px;"/>
  <polygon points="188.89 67.36 194.44 57.73 183.33 57.73 188.89 67.36" style="fill: none; stroke-width: 0px;"/>
  <polygon points="72.22 192.45 61.11 192.45 65.47 200 66.67 202.07 67.86 200 72.22 192.45" style="fill: none; stroke-width: 0px;"/>
  <polygon points="183.33 38.49 194.44 38.49 188.89 28.87 183.33 38.49" style="fill: none; stroke-width: 0px;"/>
  <polygon points="50 19.24 44.44 9.62 38.89 19.24 50 19.24" style="fill: none; stroke-width: 0px;"/>
  <polygon points="72.22 19.24 66.67 9.62 61.11 19.24 72.22 19.24" style="fill: none; stroke-width: 0px;"/>
  <polygon points="27.78 19.24 22.22 9.62 16.67 19.24 27.78 19.24" style="fill: none; stroke-width: 0px;"/>
  <polygon points="16.67 19.24 5.56 19.24 11.11 28.87 16.67 19.24" style="fill: none; stroke-width: 0px;"/>
  <polygon points="11.11 67.36 5.56 76.98 16.67 76.98 11.11 67.36" style="fill: none; stroke-width: 0px;"/>
  <polygon points="11.11 28.87 5.56 38.49 16.67 38.49 11.11 28.87" style="fill: none; stroke-width: 0px;"/>
  <polygon points="16.67 57.73 5.56 57.73 11.11 67.36 16.67 57.73" style="fill: none; stroke-width: 0px;"/>
  <polygon points="16.67 96.23 5.56 96.23 11.11 105.85 16.67 96.23" style="fill: none; stroke-width: 0px;"/>
  <polygon points="16.67 134.72 5.56 134.72 11.11 144.34 16.67 134.72" style="fill: none; stroke-width: 0px;"/>
  <polygon points="188.89 28.87 194.44 19.24 183.33 19.24 188.89 28.87" style="fill: none; stroke-width: 0px;"/>
  <polygon points="183.33 19.24 177.78 9.62 172.22 19.24 183.33 19.24" style="fill: none; stroke-width: 0px;"/>
  <polygon points="11.11 144.34 5.56 153.96 16.67 153.96 11.11 144.34" style="fill: none; stroke-width: 0px;"/>
  <polygon points="138.89 19.24 133.33 9.62 127.78 19.24 138.89 19.24" style="fill: none; stroke-width: 0px;"/>
  <polygon points="116.67 19.24 111.11 9.62 105.56 19.24 116.67 19.24" style="fill: none; stroke-width: 0px;"/>
  <polygon points="161.11 19.24 155.56 9.62 150 19.24 161.11 19.24" style="fill: none; stroke-width: 0px;"/>
  <polygon points="11.11 105.85 5.56 115.47 16.67 115.47 11.11 105.85" style="fill: none; stroke-width: 0px;"/>
  <polygon points="94.44 19.24 88.89 9.62 83.33 19.24 94.44 19.24" style="fill: none; stroke-width: 0px;"/>
  <polygon points="22.22 125.09 16.67 134.72 27.78 134.72 22.22 125.09" style="fill: none; stroke-width: 0px;"/>
  <polygon points="183.33 153.96 194.44 153.96 188.89 144.34 183.33 153.96" style="fill: none; stroke-width: 0px;"/>
  <polygon points="188.89 144.34 194.44 134.72 183.33 134.72 188.89 144.34" style="fill: none; stroke-width: 0px;"/>
  <polygon points="183.33 192.45 194.44 192.45 188.89 182.83 183.33 192.45" style="fill: none; stroke-width: 0px;"/>
  <polygon points="188.89 182.83 194.44 173.21 183.33 173.21 188.89 182.83" style="fill: none; stroke-width: 0px;"/>
  <polygon points="22.22 163.58 16.67 173.21 27.78 173.21 22.22 163.58" style="fill: none; stroke-width: 0px;"/>
  <polygon points="16.67 153.96 22.22 163.58 27.78 153.96 16.67 153.96" style="fill: none; stroke-width: 0px;"/>
  <polygon points="16.67 115.47 22.22 125.09 27.78 115.47 16.67 115.47" style="fill: none; stroke-width: 0px;"/>
  <polygon points="16.67 76.98 22.22 86.6 27.78 76.98 16.67 76.98" style="fill: none; stroke-width: 0px;"/>
  <polygon points="22.22 48.11 16.67 57.73 27.78 57.73 22.22 48.11" style="fill: none; stroke-width: 0px;"/>
  <polygon points="188.89 105.85 194.44 96.23 183.33 96.23 188.89 105.85" style="fill: none; stroke-width: 0px;"/>
  <polygon points="183.33 76.98 194.44 76.98 188.89 67.36 183.33 76.98" style="fill: none; stroke-width: 0px;"/>
  <polygon points="183.33 115.47 194.44 115.47 188.89 105.85 183.33 115.47" style="fill: none; stroke-width: 0px;"/>
  <polygon points="22.22 86.6 16.67 96.23 27.78 96.23 22.22 86.6" style="fill: none; stroke-width: 0px;"/>
  <polygon points="50 192.45 61.11 192.45 55.56 182.83 50 192.45" style="fill: none; stroke-width: 0px;"/>
  <polygon points="116.67 192.45 105.56 192.45 109.91 200 111.11 202.07 112.31 200 116.67 192.45" style="fill: none; stroke-width: 0px;"/>
  <polygon points="138.89 192.45 127.78 192.45 132.14 200 133.33 202.07 134.53 200 138.89 192.45" style="fill: none; stroke-width: 0px;"/>
  <polygon points="27.78 192.45 38.89 192.45 33.33 182.83 27.78 192.45" style="fill: none; stroke-width: 0px;"/>
  <polygon points="183.33 192.45 172.22 192.45 176.58 200 177.78 202.07 178.97 200 183.33 192.45" style="fill: none; stroke-width: 0px;"/>
  <polygon points="161.11 192.45 150 192.45 154.36 200 155.56 202.07 156.75 200 161.11 192.45" style="fill: none; stroke-width: 0px;"/>
  <polygon points="172.22 19.24 177.78 9.62 172.22 0 161.11 0 155.56 9.62 161.11 19.24 172.22 19.24" style="fill: currentcolor; stroke-width: 0px;"/>
  <polygon points="105.56 19.24 111.11 9.62 105.56 0 94.44 0 88.89 9.62 94.44 19.24 105.56 19.24" style="fill: currentcolor; stroke-width: 0px;"/>
  <polygon points="127.78 19.24 133.33 9.62 127.78 0 116.67 0 111.11 9.62 116.67 19.24 127.78 19.24" style="fill: currentcolor; stroke-width: 0px;"/>
  <polygon points="161.11 76.98 155.56 86.6 161.11 96.23 172.22 96.23 177.78 86.6 172.22 76.98 161.11 76.98" style="fill: currentcolor; stroke-width: 0px;"/>
  <polygon points="166.67 105.85 172.22 115.47 183.33 115.47 188.89 105.85 183.33 96.23 172.22 96.23 166.67 105.85" style="fill: currentcolor; stroke-width: 0px;"/>
  <polygon points="161.11 115.47 155.56 125.09 161.11 134.72 172.22 134.72 177.78 125.09 172.22 115.47 161.11 115.47" style="fill: currentcolor; stroke-width: 0px;"/>
  <polygon points="194.44 19.24 200 9.62 194.44 0 183.33 0 177.78 9.62 183.33 19.24 194.44 19.24" style="fill: currentcolor; stroke-width: 0px;"/>
  <polygon points="177.78 48.11 183.33 57.73 194.44 57.73 200 48.11 194.44 38.49 183.33 38.49 177.78 48.11" style="fill: currentcolor; stroke-width: 0px;"/>
  <polygon points="194.44 38.49 200 38.49 200 19.24 194.44 19.24 188.89 28.87 194.44 38.49" style="fill: currentcolor; stroke-width: 0px;"/>
  <polygon points="172.22 57.73 166.67 67.36 172.22 76.98 183.33 76.98 188.89 67.36 183.33 57.73 172.22 57.73" style="fill: currentcolor; stroke-width: 0px;"/>
  <polygon points="150 19.24 155.56 9.62 150 0 138.89 0 133.33 9.62 138.89 19.24 150 19.24" style="fill: currentcolor; stroke-width: 0px;"/>
  <polygon points="72.22 173.21 61.11 173.21 55.56 182.83 61.11 192.45 72.22 192.45 77.78 182.83 72.22 173.21" style="fill: currentcolor; stroke-width: 0px;"/>
  <polygon points="94.44 173.21 83.33 173.21 77.78 182.83 83.33 192.45 94.44 192.45 100 182.83 94.44 173.21" style="fill: currentcolor; stroke-width: 0px;"/>
  <polygon points="166.67 144.34 172.22 153.96 183.33 153.96 188.89 144.34 183.33 134.72 172.22 134.72 166.67 144.34" style="fill: currentcolor; stroke-width: 0px;"/>
  <polygon points="83.33 19.24 88.89 9.62 83.33 0 72.22 0 66.67 9.62 72.22 19.24 83.33 19.24" style="fill: currentcolor; stroke-width: 0px;"/>
  <polygon points="27.78 173.21 16.67 173.21 11.11 182.83 16.67 192.45 27.78 192.45 33.33 182.83 27.78 173.21" style="fill: currentcolor; stroke-width: 0px;"/>
  <polygon points="50 173.21 38.89 173.21 33.33 182.83 38.89 192.45 50 192.45 55.56 182.83 50 173.21" style="fill: currentcolor; stroke-width: 0px;"/>
  <polygon points="166.67 182.83 172.22 192.45 183.33 192.45 188.89 182.83 183.33 173.21 172.22 173.21 166.67 182.83" style="fill: currentcolor; stroke-width: 0px;"/>
  <polygon points="116.67 173.21 105.56 173.21 100 182.83 105.56 192.45 116.67 192.45 122.22 182.83 116.67 173.21" style="fill: currentcolor; stroke-width: 0px;"/>
  <polygon points="161.11 153.96 155.56 163.58 161.11 173.21 172.22 173.21 177.78 163.58 172.22 153.96 161.11 153.96" style="fill: currentcolor; stroke-width: 0px;"/>
  <polygon points="161.11 173.21 150 173.21 144.44 182.83 150 192.45 161.11 192.45 166.67 182.83 161.11 173.21" style="fill: currentcolor; stroke-width: 0px;"/>
  <polygon points="138.89 173.21 127.78 173.21 122.22 182.83 127.78 192.45 138.89 192.45 144.44 182.83 138.89 173.21" style="fill: currentcolor; stroke-width: 0px;"/>
  <polygon points="38.89 173.21 44.44 163.58 38.89 153.96 27.78 153.96 22.22 163.58 27.78 173.21 38.89 173.21" style="fill: currentcolor; stroke-width: 0px;"/>
  <polygon points="194.44 192.45 200 192.45 200 173.21 194.44 173.21 188.89 182.83 194.44 192.45" style="fill: currentcolor; stroke-width: 0px;"/>
  <polygon points="177.78 163.58 183.33 173.21 194.44 173.21 200 163.58 194.44 153.96 183.33 153.96 177.78 163.58" style="fill: currentcolor; stroke-width: 0px;"/>
  <polygon points="16.67 192.45 5.56 192.45 1.2 200 21.03 200 16.67 192.45" style="fill: currentcolor; stroke-width: 0px;"/>
  <polygon points="194.44 153.96 200 153.96 200 134.72 194.44 134.72 188.89 144.34 194.44 153.96" style="fill: currentcolor; stroke-width: 0px;"/>
  <polygon points="178.97 200 198.8 200 194.44 192.45 183.33 192.45 178.97 200" style="fill: currentcolor; stroke-width: 0px;"/>
  <polygon points="194.44 115.47 200 115.47 200 96.23 194.44 96.23 188.89 105.85 194.44 115.47" style="fill: currentcolor; stroke-width: 0px;"/>
  <polygon points="177.78 125.09 183.33 134.72 194.44 134.72 200 125.09 194.44 115.47 183.33 115.47 177.78 125.09" style="fill: currentcolor; stroke-width: 0px;"/>
  <polygon points="200 57.73 194.44 57.73 188.89 67.36 194.44 76.98 200 76.98 200 57.73" style="fill: currentcolor; stroke-width: 0px;"/>
  <polygon points="177.78 86.6 183.33 96.23 194.44 96.23 200 86.6 194.44 76.98 183.33 76.98 177.78 86.6" style="fill: currentcolor; stroke-width: 0px;"/>
  <polygon points="5.56 173.21 0 173.21 0 192.45 5.56 192.45 11.11 182.83 5.56 173.21" style="fill: currentcolor; stroke-width: 0px;"/>
  <polygon points="61.11 19.24 66.67 9.62 61.11 0 50 0 44.44 9.62 50 19.24 61.11 19.24" style="fill: currentcolor; stroke-width: 0px;"/>
  <polygon points="5.56 57.73 0 57.73 0 76.98 5.56 76.98 11.11 67.36 5.56 57.73" style="fill: currentcolor; stroke-width: 0px;"/>
  <polygon points="22.22 48.11 16.67 38.49 5.56 38.49 0 48.11 5.56 57.73 16.67 57.73 22.22 48.11" style="fill: currentcolor; stroke-width: 0px;"/>
  <polygon points="5.56 19.24 0 19.24 0 38.49 5.56 38.49 11.11 28.87 5.56 19.24" style="fill: currentcolor; stroke-width: 0px;"/>
  <polygon points="22.22 9.62 16.67 0 5.56 0 0 9.62 5.56 19.24 16.67 19.24 22.22 9.62" style="fill: currentcolor; stroke-width: 0px;"/>
  <polygon points="38.89 19.24 44.44 9.62 38.89 0 27.78 0 22.22 9.62 27.78 19.24 38.89 19.24" style="fill: currentcolor; stroke-width: 0px;"/>
  <polygon points="22.22 125.09 16.67 115.47 5.56 115.47 0 125.09 5.56 134.72 16.67 134.72 22.22 125.09" style="fill: currentcolor; stroke-width: 0px;"/>
  <polygon points="5.56 134.72 0 134.72 0 153.96 5.56 153.96 11.11 144.34 5.56 134.72" style="fill: currentcolor; stroke-width: 0px;"/>
  <polygon points="22.22 163.58 16.67 153.96 5.56 153.96 0 163.58 5.56 173.21 16.67 173.21 22.22 163.58" style="fill: currentcolor; stroke-width: 0px;"/>
  <polygon points="22.22 86.6 16.67 76.98 5.56 76.98 0 86.6 5.56 96.23 16.67 96.23 22.22 86.6" style="fill: currentcolor; stroke-width: 0px;"/>
  <polygon points="5.56 96.23 0 96.23 0 115.47 5.56 115.47 11.11 105.85 5.56 96.23" style="fill: currentcolor; stroke-width: 0px;"/>
  <polygon points="100 105.85 105.56 115.47 116.67 115.47 122.22 105.85 116.67 96.23 105.56 96.23 100 105.85" style="fill: currentcolor; stroke-width: 0px;"/>
  <polygon points="122.22 144.34 127.78 153.96 138.89 153.96 144.44 144.34 138.89 134.72 127.78 134.72 122.22 144.34" style="fill: currentcolor; stroke-width: 0px;"/>
  <polygon points="116.67 115.47 111.11 125.09 116.67 134.72 127.78 134.72 133.33 125.09 127.78 115.47 116.67 115.47" style="fill: currentcolor; stroke-width: 0px;"/>
  <polygon points="116.67 134.72 105.56 134.72 100 144.34 105.56 153.96 116.67 153.96 122.22 144.34 116.67 134.72" style="fill: currentcolor; stroke-width: 0px;"/>
  <polygon points="122.22 105.85 127.78 115.47 138.89 115.47 144.44 105.85 138.89 96.23 127.78 96.23 122.22 105.85" style="fill: currentcolor; stroke-width: 0px;"/>
  <polygon points="94.44 134.72 83.33 134.72 77.78 144.34 83.33 153.96 94.44 153.96 100 144.34 94.44 134.72" style="fill: currentcolor; stroke-width: 0px;"/>
  <polygon points="33.33 144.34 27.78 134.72 16.67 134.72 11.11 144.34 16.67 153.96 27.78 153.96 33.33 144.34" style="fill: currentcolor; stroke-width: 0px;"/>
  <polygon points="72.22 134.72 61.11 134.72 55.56 144.34 61.11 153.96 72.22 153.96 77.78 144.34 72.22 134.72" style="fill: currentcolor; stroke-width: 0px;"/>
  <polygon points="94.44 57.73 105.56 57.73 111.11 48.11 105.56 38.49 94.44 38.49 88.89 48.11 94.44 57.73" style="fill: currentcolor; stroke-width: 0px;"/>
  <polygon points="77.78 105.85 72.22 96.23 61.11 96.23 55.56 105.85 61.11 115.47 72.22 115.47 77.78 105.85" style="fill: currentcolor; stroke-width: 0px;"/>
  <polygon points="61.11 57.73 66.67 48.11 61.11 38.49 50 38.49 44.44 48.11 50 57.73 61.11 57.73" style="fill: currentcolor; stroke-width: 0px;"/>
  <polygon points="72.22 57.73 83.33 57.73 88.89 48.11 83.33 38.49 72.22 38.49 66.67 48.11 72.22 57.73" style="fill: currentcolor; stroke-width: 0px;"/>
  <polygon points="138.89 57.73 150 57.73 155.56 48.11 150 38.49 138.89 38.49 133.33 48.11 138.89 57.73" style="fill: currentcolor; stroke-width: 0px;"/>
  <polygon points="116.67 76.98 111.11 86.6 116.67 96.23 127.78 96.23 133.33 86.6 127.78 76.98 116.67 76.98" style="fill: currentcolor; stroke-width: 0px;"/>
  <polygon points="127.78 57.73 122.22 67.36 127.78 76.98 138.89 76.98 144.44 67.36 138.89 57.73 127.78 57.73" style="fill: currentcolor; stroke-width: 0px;"/>
  <polygon points="116.67 57.73 127.78 57.73 133.33 48.11 127.78 38.49 116.67 38.49 111.11 48.11 116.67 57.73" style="fill: currentcolor; stroke-width: 0px;"/>
  <polygon points="67.86 200 87.69 200 83.33 192.45 72.22 192.45 67.86 200" style="fill: currentcolor; stroke-width: 0px;"/>
  <polygon points="23.42 200 43.25 200 38.89 192.45 27.78 192.45 23.42 200" style="fill: currentcolor; stroke-width: 0px;"/>
  <polygon points="45.64 200 65.47 200 61.11 192.45 50 192.45 45.64 200" style="fill: currentcolor; stroke-width: 0px;"/>
  <polygon points="90.09 200 109.91 200 105.56 192.45 94.44 192.45 90.09 200" style="fill: currentcolor; stroke-width: 0px;"/>
  <polygon points="112.31 200 132.14 200 127.78 192.45 116.67 192.45 112.31 200" style="fill: currentcolor; stroke-width: 0px;"/>
  <polygon points="83.33 96.23 88.89 86.6 83.33 76.98 72.22 76.98 66.67 86.6 72.22 96.23 83.33 96.23" style="fill: currentcolor; stroke-width: 0px;"/>
  <polygon points="134.53 200 154.36 200 150 192.45 138.89 192.45 134.53 200" style="fill: currentcolor; stroke-width: 0px;"/>
  <polygon points="156.75 200 176.58 200 172.22 192.45 161.11 192.45 156.75 200" style="fill: currentcolor; stroke-width: 0px;"/>
  <polygon points="105.56 76.98 116.67 76.98 122.22 67.36 116.67 57.73 105.56 57.73 100 67.36 105.56 76.98" style="fill: currentcolor; stroke-width: 0px;"/>
  <polygon points="83.33 76.98 94.44 76.98 100 67.36 94.44 57.73 83.33 57.73 77.78 67.36 83.33 76.98" style="fill: currentcolor; stroke-width: 0px;"/>
  <polygon points="100 105.85 94.44 96.23 83.33 96.23 77.78 105.85 83.33 115.47 94.44 115.47 100 105.85" style="fill: currentcolor; stroke-width: 0px;"/>
  <polygon points="77.78 67.36 72.22 57.73 61.11 57.73 55.56 67.36 61.11 76.98 72.22 76.98 77.78 67.36" style="fill: currentcolor; stroke-width: 0px;"/>
  <polygon points="94.44 115.47 88.89 125.09 94.44 134.72 105.56 134.72 111.11 125.09 105.56 115.47 94.44 115.47" style="fill: currentcolor; stroke-width: 0px;"/>
  <polygon points="94.44 76.98 88.89 86.6 94.44 96.23 105.56 96.23 111.11 86.6 105.56 76.98 94.44 76.98" style="fill: currentcolor; stroke-width: 0px;"/>
  <polygon points="83.33 134.72 88.89 125.09 83.33 115.47 72.22 115.47 66.67 125.09 72.22 134.72 83.33 134.72" style="fill: currentcolor; stroke-width: 0px;"/>
  <polygon points="105.56 38.49 116.67 38.49 122.22 28.87 116.67 19.24 105.56 19.24 100 28.87 105.56 38.49" style="fill: currentcolor; stroke-width: 0px;"/>
  <polygon points="55.56 67.36 50 57.73 38.89 57.73 33.33 67.36 38.89 76.98 50 76.98 55.56 67.36" style="fill: currentcolor; stroke-width: 0px;"/>
  <polygon points="61.11 38.49 72.22 38.49 77.78 28.87 72.22 19.24 61.11 19.24 55.56 28.87 61.11 38.49" style="fill: currentcolor; stroke-width: 0px;"/>
  <polygon points="38.89 38.49 50 38.49 55.56 28.87 50 19.24 38.89 19.24 33.33 28.87 38.89 38.49" style="fill: currentcolor; stroke-width: 0px;"/>
  <polygon points="161.11 38.49 155.56 48.11 161.11 57.73 172.22 57.73 177.78 48.11 172.22 38.49 161.11 38.49" style="fill: currentcolor; stroke-width: 0px;"/>
  <polygon points="172.22 38.49 183.33 38.49 188.89 28.87 183.33 19.24 172.22 19.24 166.67 28.87 172.22 38.49" style="fill: currentcolor; stroke-width: 0px;"/>
  <polygon points="150 38.49 161.11 38.49 166.67 28.87 161.11 19.24 150 19.24 144.44 28.87 150 38.49" style="fill: currentcolor; stroke-width: 0px;"/>
  <polygon points="127.78 38.49 138.89 38.49 144.44 28.87 138.89 19.24 127.78 19.24 122.22 28.87 127.78 38.49" style="fill: currentcolor; stroke-width: 0px;"/>
  <polygon points="33.33 105.85 27.78 96.23 16.67 96.23 11.11 105.85 16.67 115.47 27.78 115.47 33.33 105.85" style="fill: currentcolor; stroke-width: 0px;"/>
  <polygon points="38.89 134.72 44.44 125.09 38.89 115.47 27.78 115.47 22.22 125.09 27.78 134.72 38.89 134.72" style="fill: currentcolor; stroke-width: 0px;"/>
  <polygon points="38.89 96.23 44.44 86.6 38.89 76.98 27.78 76.98 22.22 86.6 27.78 96.23 38.89 96.23" style="fill: currentcolor; stroke-width: 0px;"/>
  <polygon points="33.33 67.36 27.78 57.73 16.67 57.73 11.11 67.36 16.67 76.98 27.78 76.98 33.33 67.36" style="fill: currentcolor; stroke-width: 0px;"/>
  <polygon points="33.33 28.87 27.78 19.24 16.67 19.24 11.11 28.87 16.67 38.49 27.78 38.49 33.33 28.87" style="fill: currentcolor; stroke-width: 0px;"/>
  <polygon points="38.89 57.73 44.44 48.11 38.89 38.49 27.78 38.49 22.22 48.11 27.78 57.73 38.89 57.73" style="fill: currentcolor; stroke-width: 0px;"/>
  <polygon points="83.33 38.49 94.44 38.49 100 28.87 94.44 19.24 83.33 19.24 77.78 28.87 83.33 38.49" style="fill: currentcolor; stroke-width: 0px;"/>
  <polygon points="61.11 153.96 50 153.96 44.44 163.58 50 173.21 61.11 173.21 66.67 163.58 61.11 153.96" style="fill: currentcolor; stroke-width: 0px;"/>
  <polygon points="105.56 153.96 94.44 153.96 88.89 163.58 94.44 173.21 105.56 173.21 111.11 163.58 105.56 153.96" style="fill: currentcolor; stroke-width: 0px;"/>
  <polygon points="55.56 144.34 50 134.72 38.89 134.72 33.33 144.34 38.89 153.96 50 153.96 55.56 144.34" style="fill: currentcolor; stroke-width: 0px;"/>
  <polygon points="83.33 153.96 72.22 153.96 66.67 163.58 72.22 173.21 83.33 173.21 88.89 163.58 83.33 153.96" style="fill: currentcolor; stroke-width: 0px;"/>
  <polygon points="61.11 134.72 66.67 125.09 61.11 115.47 50 115.47 44.44 125.09 50 134.72 61.11 134.72" style="fill: currentcolor; stroke-width: 0px;"/>
  <polygon points="61.11 96.23 66.67 86.6 61.11 76.98 50 76.98 44.44 86.6 50 96.23 61.11 96.23" style="fill: currentcolor; stroke-width: 0px;"/>
  <polygon points="55.56 105.85 50 96.23 38.89 96.23 33.33 105.85 38.89 115.47 50 115.47 55.56 105.85" style="fill: currentcolor; stroke-width: 0px;"/>
  <polygon points="127.78 153.96 116.67 153.96 111.11 163.58 116.67 173.21 127.78 173.21 133.33 163.58 127.78 153.96" style="fill: currentcolor; stroke-width: 0px;"/>
  <polygon points="144.44 105.85 150 115.47 161.11 115.47 166.67 105.85 161.11 96.23 150 96.23 144.44 105.85" style="fill: currentcolor; stroke-width: 0px;"/>
  <polygon points="138.89 115.47 133.33 125.09 138.89 134.72 150 134.72 155.56 125.09 150 115.47 138.89 115.47" style="fill: currentcolor; stroke-width: 0px;"/>
  <polygon points="138.89 76.98 133.33 86.6 138.89 96.23 150 96.23 155.56 86.6 150 76.98 138.89 76.98" style="fill: currentcolor; stroke-width: 0px;"/>
  <polygon points="144.44 144.34 150 153.96 161.11 153.96 166.67 144.34 161.11 134.72 150 134.72 144.44 144.34" style="fill: currentcolor; stroke-width: 0px;"/>
  <polygon points="138.89 153.96 133.33 163.58 138.89 173.21 150 173.21 155.56 163.58 150 153.96 138.89 153.96" style="fill: currentcolor; stroke-width: 0px;"/>
  <polygon points="150 57.73 144.44 67.36 150 76.98 161.11 76.98 166.67 67.36 161.11 57.73 150 57.73" style="fill: currentcolor; stroke-width: 0px;"/>
</svg>