<?xml version="1.0" encoding="UTF-8"?>
<svg id="uuid-13f7bd77-23d9-47ab-80de-37ab2612dccc" data-name="圖層 1" xmlns="http://www.w3.org/2000/svg" viewBox="0 0 150.62 57.45">
  <g>
    <path d="m41.91,30.3c0,.15,0,.28-.01.41h0s0,.08-.01.11c-.09,1.15-.56,1.93-1.15,2.29-.03.01-.06.03-.09.05-.38.2-.8.23-1.21.09-.06,0-.11-.04-.17-.07-.06-.03-.12-.09-.19-.13-.18-.1-.34-.25-.48-.44l-.02-.02s-.03-.05-.05-.07h0c-.05-.07-.11-.13-.14-.2-.25-.41-.44-.95-.55-1.62v-.07c-.03-.13-.04-.26-.06-.4-.01-.09-.01-.17-.01-.26v-.05c0-.13.01-.26.02-.38.02-.57.16-1.13.42-1.63.16-.32.37-.55.6-.7.41-.27.9-.29,1.37-.1.01.01.02.01.03.01.46.18.89.58,1.2,1.14t.01.02s.03.06.05.09c.02.02.02.04.03.07h0s.02.05.03.07c.01.01.01.03.01.04.01.02.02.04.03.06.04.12.08.23.12.35.14.43.2.89.21,1.34Z" style="fill: currentColor; stroke-width: 0px;"/>
    <path d="m19.24,30.24c0,.13-.02.26-.05.39h0s0,.05-.01.07c-.12.79-.37,1.39-.68,1.81-.04.07-.09.12-.14.18-.55.63-1.26.79-1.87.52-.12-.04-.21-.09-.31-.17-.05-.03-.11-.07-.16-.13-.05-.05-.1-.1-.16-.15-.06-.05-.1-.1-.14-.16h0c-.09-.14-.17-.27-.24-.42-.04-.07-.07-.15-.1-.25-.07-.17-.13-.36-.16-.57-.02-.07-.04-.15-.05-.22v-.05c-.02-.06-.02-.12-.03-.2v-.06s.01.09.02.13c-.02-.19-.05-.37-.05-.57v-.09c0-.14.01-.27.03-.39.01-.14.03-.26.05-.38.02-.1.04-.2.06-.31.02-.1.04-.19.07-.28.05-.13.09-.26.14-.37.01-.02.02-.04.03-.06.06-.14.13-.27.2-.4,0-.02.02-.04.03-.05.07-.1.14-.19.22-.28.09-.1.18-.2.27-.29.12-.11.26-.19.39-.26.01,0,.01-.01.02-.01.78-.44,1.68-.27,2.17.65.01,0,.02.02.03.04.36.69.47,1.53.42,2.33Z" style="fill: currentColor; stroke-width: 0px;"/>
    <path d="m35.96,35.72c0-.2,0-.4-.01-.6,0-.2,0-.4-.02-.59-.01-.2-.02-.41-.04-.61,0-.19-.03-.4-.06-.59-.02-.19-.05-.39-.08-.57-.03-.19-.07-.38-.11-.56v-.02s-.02-.09-.03-.13c-.03-.14-.06-.27-.1-.39-.06-.24-.13-.48-.22-.7-.06-.18-.12-.35-.21-.51,0-.01-.01-.02-.01-.03-.06-.14-.12-.27-.19-.4-.02-.05-.05-.1-.08-.14-.07-.15-.15-.28-.24-.41-.1-.16-.21-.33-.33-.48-.03-.04-.06-.09-.1-.13-.22-.29-.44-.55-.7-.78-.55-.52-1.16-.93-1.81-1.24-.04-.02-.09-.04-.13-.06-.08-.04-.17-.08-.27-.11-.19-.08-.39-.15-.6-.22-.01,0-.02,0-.03-.01-.13-.03-.27-.07-.42-.1-.02-.01-.04-.01-.06-.02-.05,0-.1-.02-.15-.03-.04,0-.08-.01-.12-.02-.02-.01-.04-.01-.06-.01-.05-.01-.11-.02-.17-.03h-.04s-.06-.02-.09-.01c-.01-.01-.03-.01-.04-.01-.13-.02-.25-.03-.38-.03-.36-.04-.73-.04-1.1-.01-.19.01-.38.03-.57.07-.14.02-.27.04-.4.08-.14.02-.27.06-.4.1-.01,0-.02,0-.03.01-.12.03-.26.08-.38.12-.01-.01-.01,0-.02,0-.3.1-.61.23-.9.37-.88.45-1.69,1.08-2.34,1.91-.04.05-.08.11-.12.16-.1.13-.19.27-.26.4-.46.66-.8,1.41-1.02,2.27-.02.03-.03.07-.04.11h0s-.01.05-.01.07c-.01.03-.02.06-.02.1,0,.01,0,.03,0,.04-.08.31-.14.62-.18.92-.35,1.83-.37,3.87-.07,5.74-.01,0,0,.02,0,.02,0,.02,0,.05,0,.07.12,1.4.6,2.74,1.37,3.87,0,.01.01.03.02.04.03.05.06.1.09.14.03.05.07.09.1.13.03.05.07.1.11.14.1.13.22.26.33.39.18.21.37.4.57.58.09.09.18.17.27.25.12.09.23.18.35.26.19.16.39.28.58.4.11.06.22.1.32.16,0,.01.02.01.03.02,1.01.53,2.08.76,3.14.74.01,0,.02.01.03.01h.07c.13,0,.25,0,.38-.01.04,0,.09,0,.15-.01h.02c2.46-.2,4.48-1.68,5.64-3.75.08-.12.15-.26.21-.38.71-1.33,1.09-2.91.96-4.64,0-.45.02-.9.02-1.35Zm-3.42-1.53h-.01c-.58.52-1.63.97-2.42,1.36-.28.14-.51.38-.61.66l-.28.69c-.09.24-.09.5-.01.75.03.07.08.13.15.18.06.05.14.08.22.09.95.08,2.11.26,2,.8-.04.22-.24.35-.46.32-.85-.15-1.73-.21-2.61-.21s-1.8.07-2.67.22c-.2,0-.36-.14-.4-.33-.1-.54,1.06-.72,1.99-.8.18-.01.32-.12.38-.27h0c.09-.25.09-.51-.01-.75l-.27-.69c-.13-.29-.34-.53-.62-.66-.41-.19-.82-.4-1.22-.59-1-.5-1.98-1.14-1.8-2.31.12-.87,1.03-1.36,1.84-1.51.92-.15,1.86-.2,2.78-.19.56,0,1.12.03,1.67.06.76.05,1.55.15,2.18.55,1,.6,1.05,1.89.18,2.63Z" style="fill: currentColor; stroke-width: 0px;"/>
    <path d="m55.01,28.69c-.15,4.37-.92,8.26-2.24,11.63.78-8.23-3.59-19.33-3.76-19.81-.29-2.99.82-6.62-1.49-8.99-.08-.1-.17-.18-.26-.26-.21-.21-.43-.39-.64-.54-2.49-1.91-5-.81-7.46.58-.05.03-.11.07-.17.11-.29.17-.55.34-.84.5-.03.02-.06.04-.08.05-.14.1-.29.19-.44.27-.31.19-.63.37-.95.53,0,.01-.01.01-.01.01-.01,0-.03,0-.03.01-.14.07-.27.13-.4.19-.03.01-.05.02-.08.03-.17.07-.32.15-.48.21-.69.27-1.42.47-2.19.53-1.95.26-3.97.11-5.94.16-1.18,0-2.41-.01-3.61-.17-.02,0-.06,0-.08-.01-.71-.08-1.38-.26-2.01-.51-.17-.06-.33-.14-.49-.21-.04-.02-.08-.04-.13-.06-.13-.06-.25-.12-.37-.17,0,0-.01,0-.01-.01-.33-.16-.64-.34-.96-.53-.15-.08-.29-.17-.44-.27-.03-.02-.06-.03-.08-.05-.26-.15-.52-.31-.78-.48-2.74-1.56-5.55-2.89-8.33-.17-2.65,2.36-1.44,6.14-1.74,9.25h.01c0,.31-5.23,13.08-3.55,21.47-1.77-3.73-2.78-8.19-2.96-13.29-.25-6.83,2.29-13.35,7.15-18.4C14.21,5.07,21.25,2.05,28.52,1.99c7.26.06,14.3,3.08,19.34,8.3,4.86,5.05,7.4,11.57,7.15,18.4Z" style="fill: currentColor; stroke-width: 0px;"/>
  </g>
  <g>
    <path d="m71.87,40.97c1.42.13,4.22.64,5.59,1.05-.62,1.61-1.57,4.9-1.88,6.59-1.49-.28-4.45-.97-5.89-1.4.57-1.39,1.71-4.78,2.18-6.24Zm9.04-25.71c1.31-.58,3.98-1.63,5.33-2.09,1.07,2.42,2.68,5.72,3.36,8.29-1.42.27-4.37.88-5.76,1.22-.04-.06-.37-1.46-.44-1.48-3.35.36-8.22.74-11.48,1.22-.55-.9-1.58-2.84-1.88-3.84,1.95-3.02,4.84-7,6.94-9.91,1.35.66,4.1,2.16,5.33,3.01-1.05,1.28-3.47,4.27-4.45,5.54.9-.01,2.81-.22,3.71-.35l-.65-1.62Zm-9.43,7.99c5.24-.56,10.93-.19,15.67-.35l1,1.7v2.75c.04,2.96.11,9.3.13,12.22-1.6.66-5.59.4-7.29.22.04-.61.13-2.12-.04-2.71l1-.09v-.7c-1.07-.08-3.24-.09-4.32-.04,0,1.75-.01,2.87-.04,3.36-1.53-.25-4.69-.59-6.24-.7-.01-4.42.11-11.25.13-15.67Zm10.65,4.85l.04-1.31c-1.05.02-3.47.1-4.54.13v1.18c1.04.06,3.43.03,4.5,0Zm-.09,3.58c-1.52-.04-3.03-.11-4.41-.04v1.14c.96-.02,3.79-.08,4.41,0v-1.09Zm-2.1,10.52c1.36-.35,4.23-.9,5.63-1.13.6,1.63,1.74,4.97,2.27,6.64-1.43.39-4.34.93-5.81,1.09-.51-1.65-1.56-4.96-2.1-6.59Zm9.82-17.85c1.45.33,5.14,1.12,6.59,1.09l-.26,2.66c1.13.07,7.19-.45,8.6-.61.08,1.09.52,3.5.74,4.58-2.69.16-6.76.53-9.43.57-.06.38.19,1.58.26,1.96,1.91.41,4.68.67,6.55-.09,0,0,.83-1.48.83-1.48,1.16.71,3.57,2.13,4.76,2.75l-1.96,2.92-2.4.79c-4.18.1-10.38.63-13.88-2.14-.42-1.64-.62-4.99-.48-6.68-.16-1.58-.17-4.77.09-6.33Zm0-14.01c1.46.1,5.06.55,6.55.74.02.85-.11,1.89-.17,2.57,1.56.02,6.23-.25,7.86-.35.55.99.99,3.28,1.09,4.41-2.34.06-6.7.26-8.99.26-.1.48.22,1.52.39,1.96,2.39.31,5.6.7,7.68-.79.94.82,2.86,2.65,3.62,3.62l-2.97,1.83-5.11.52-5.81-.39-3.14-1.66c-1.57-3.8-1.05-8.73-1-12.75Zm-.09,31.56c1.4-.42,4.27-1.04,5.72-1.22.67,1.65,1.92,5.19,2.49,6.9-1.49.22-4.56.63-6.07.83-.44-1.58-1.49-5.02-2.14-6.5Zm10-.26c1.3-.4,4.03-1.33,5.33-1.79.96,1.79,2.45,5.56,3.01,7.51-1.5.31-4.56.83-6.07,1-.46-1.71-1.61-5.08-2.27-6.72Z" style="fill: currentColor; stroke-width: 0px;"/>
    <path d="m110.85,28.22c2.27-.12,7.29-.28,9.52-.09.84.94,1.59,3.42,1.83,4.63-1.64,2.09-3.32,5.06-2.66,7.81,1.27-.23,6.83,1.09,8.16,1.35,6.09.76,14.88,1.22,20.95.52.09,1.58-.1,4.78-.74,6.24-5.08.02-15.4-.66-20.47-1.22-4.34-.67-8.82-2.09-13.14-.13-1.12-.85-2.14-3.91-2.53-5.19,1.74-.83,1.52-1.59,1.18-3.23.18-1.35,1.1-3.87,1.75-5.06l-3.06.18c-.56-1.4-.87-4.31-.79-5.81Zm2.05-9.39c2.46.47,5.91,1.65,7.86,3.27-.54,1.09-1.93,3.82-2.88,4.58-1.55-.92-4.94-2.25-6.68-2.75.27-1.26,1-4.04,1.7-5.11Zm2.05-8.25c2.57.54,5.78,2.09,7.9,3.62-.61,1.27-2.11,3.98-3.27,4.8-1.64-1.08-5.11-2.99-6.94-3.67.39-1.26,1.46-3.75,2.31-4.76Zm17.72-1.13c2.1.33,5.63.68,6.63,2.88,3.07,2.95,7.74,6.43,11.31,8.73-.7,1.61-2.59,4.41-3.93,5.54l-3.54-2.75-.22,2.36c-.34,0-4.49-.05-4.67-.04l-.04,2.18,8.03-.09c.18,1.33.15,3.96-.09,5.28-1.96.02-5.93.07-7.9.09.19,7.65,2.07,9-7.07,8.29-.13-1.14-.68-3.34-1.18-4.37.48-.06,1.93-.08,2.23-.57l.04-3.23-6.72.22c-.38-1.12-.54-3.92-.57-5.11,1.17-.06,6.23-.35,7.29-.35l-.13-2.23-4.41.13c-.04-.39-.31-2.63-.26-2.97l-3.19,2.49c-1.16-1.08-2.86-3.55-3.36-5.06,4.42-2.76,8.83-7.11,11.74-11.44Zm-8.21,24.53c1.3.27,3.93,1.02,5.11,1.62-.92,1.39-2.44,4.33-3.01,5.89-1.36-.4-4.02-1.45-5.19-2.23.75-1.56,1.97-3.97,3.1-5.28Zm15.15-13.1c-1.09-.82-3.88-3.33-4.93-4.28-.89.94-3.45,3.71-4.45,4.45,2.27-.11,7.09-.17,9.38-.17Zm5.37,13.05c1.49,1.55,3.02,4.24,3.97,6.16-1.45.75-4.48,1.69-6.11,1.83-.58-1.92-1.68-4.42-2.84-6.07,1.19-.6,3.69-1.62,4.98-1.92Z" style="fill: currentColor; stroke-width: 0px;"/>
  </g>
</svg>