<?xml version="1.0" encoding="UTF-8"?>
<svg id="uuid-b20f144b-55d8-42a3-9669-9425fb6ec57d" data-name="圖層 2" xmlns="http://www.w3.org/2000/svg" viewBox="0 0 53.02 43.87">
  <g id="uuid-b905e0e9-016d-4a60-86dd-68da3f42d019" data-name="圖層 1">
    <g>
      <path d="m39.91,28.31c0,.15,0,.28-.01.41h0s0,.08-.01.11c-.09,1.15-.56,1.93-1.15,2.29-.03.01-.06.03-.09.05-.38.2-.8.23-1.21.09-.06,0-.11-.04-.17-.07-.06-.03-.12-.09-.19-.13-.18-.1-.34-.25-.48-.44l-.02-.02s-.03-.05-.05-.07h0c-.05-.07-.11-.13-.14-.2-.25-.41-.44-.95-.55-1.62v-.07c-.03-.13-.04-.26-.06-.4-.01-.09-.01-.17-.01-.26v-.05c0-.13.01-.26.02-.38.02-.57.16-1.13.42-1.63.16-.32.37-.55.6-.7.41-.27.9-.29,1.37-.1.01.01.02.01.03.01.46.18.89.58,1.2,1.14t.01.02s.03.06.05.09c.02.02.02.04.03.07h0s.02.05.03.07c.01.01.01.03.01.04.01.02.02.04.03.06.04.12.08.23.12.35.14.43.2.89.21,1.34Z" style="fill: #f8f9fa; stroke-width: 0px;"/>
      <path d="m17.24,28.25c0,.13-.02.26-.05.39h0s0,.05-.01.07c-.12.79-.37,1.39-.68,1.81-.04.07-.09.12-.14.18-.55.63-1.26.79-1.87.52-.12-.04-.21-.09-.31-.17-.05-.03-.11-.07-.16-.13-.05-.05-.1-.1-.16-.15-.06-.05-.1-.1-.14-.16h0c-.09-.14-.17-.27-.24-.42-.04-.07-.07-.15-.1-.25-.07-.17-.13-.36-.16-.57-.02-.07-.04-.15-.05-.22v-.05c-.02-.06-.02-.12-.03-.2v-.06s.01.09.02.13c-.02-.19-.05-.37-.05-.57v-.09c0-.14.01-.27.03-.39.01-.14.03-.26.05-.38.02-.1.04-.2.06-.31.02-.1.04-.19.07-.28.05-.13.09-.26.14-.37.01-.02.02-.04.03-.06.06-.14.13-.27.2-.4,0-.02.02-.04.03-.05.07-.1.14-.19.22-.28.09-.1.18-.2.27-.29.12-.11.26-.19.39-.26.01,0,.01-.01.02-.01.78-.44,1.68-.27,2.17.65.01,0,.02.02.03.04.36.69.47,1.53.42,2.33Z" style="fill: #f8f9fa; stroke-width: 0px;"/>
      <path d="m33.96,33.73c0-.2,0-.4-.01-.6,0-.2,0-.4-.02-.59-.01-.2-.02-.41-.04-.61,0-.19-.03-.4-.06-.59-.02-.19-.05-.39-.08-.57-.03-.19-.07-.38-.11-.56v-.02s-.02-.09-.03-.13c-.03-.14-.06-.27-.1-.39-.06-.24-.13-.48-.22-.7-.06-.18-.12-.35-.21-.51,0-.01-.01-.02-.01-.03-.06-.14-.12-.27-.19-.4-.02-.05-.05-.1-.08-.14-.07-.15-.15-.28-.24-.41-.1-.16-.21-.33-.33-.48-.03-.04-.06-.09-.1-.13-.22-.29-.44-.55-.7-.78-.55-.52-1.16-.93-1.81-1.24-.04-.02-.09-.04-.13-.06-.08-.04-.17-.08-.27-.11-.19-.08-.39-.15-.6-.22-.01,0-.02,0-.03-.01-.13-.03-.27-.07-.42-.1-.02-.01-.04-.01-.06-.02-.05,0-.1-.02-.15-.03-.04,0-.08-.01-.12-.02-.02-.01-.04-.01-.06-.01-.05-.01-.11-.02-.17-.03h-.04s-.06-.02-.09-.01c-.01-.01-.03-.01-.04-.01-.13-.02-.25-.03-.38-.03-.36-.04-.73-.04-1.1-.01-.19.01-.38.03-.57.07-.14.02-.27.04-.4.08-.14.02-.27.06-.4.1-.01,0-.02,0-.03.01-.12.03-.26.08-.38.12-.01-.01-.01,0-.02,0-.3.1-.61.23-.9.37-.88.45-1.69,1.08-2.34,1.91-.04.05-.08.11-.12.16-.1.13-.19.27-.26.4-.46.66-.8,1.41-1.02,2.27-.02.03-.03.07-.04.11h0s-.01.05-.01.07c-.01.03-.02.06-.02.1,0,.01,0,.03,0,.04-.08.31-.14.62-.18.92-.35,1.83-.37,3.87-.07,5.74-.01,0,0,.02,0,.02,0,.02,0,.05,0,.07.12,1.4.6,2.74,1.37,3.87,0,.01.01.03.02.04.03.05.06.1.09.14.03.05.07.09.1.13.03.05.07.1.11.14.1.13.22.26.33.39.18.21.37.4.57.58.09.09.18.17.27.25.12.09.23.18.35.26.19.16.39.28.58.4.11.06.22.1.32.16,0,.01.02.01.03.02,1.01.53,2.08.76,3.14.74.01,0,.02.01.03.01h.07c.13,0,.25,0,.38-.01.04,0,.09,0,.15-.01h.02c2.46-.2,4.48-1.68,5.64-3.75.08-.12.15-.26.21-.38.71-1.33,1.09-2.91.96-4.64,0-.45.02-.9.02-1.35Zm-3.42-1.53h-.01c-.58.52-1.63.97-2.42,1.36-.28.14-.51.38-.61.66l-.28.69c-.09.24-.09.5-.01.75.03.07.08.13.15.18.06.05.14.08.22.09.95.08,2.11.26,2,.8-.04.22-.24.35-.46.32-.85-.15-1.73-.21-2.61-.21s-1.8.07-2.67.22c-.2,0-.36-.14-.4-.33-.1-.54,1.06-.72,1.99-.8.18-.01.32-.12.38-.27h0c.09-.25.09-.51-.01-.75l-.27-.69c-.13-.29-.34-.53-.62-.66-.41-.19-.82-.4-1.22-.59-1-.5-1.98-1.14-1.8-2.31.12-.87,1.03-1.36,1.84-1.51.92-.15,1.86-.2,2.78-.19.56,0,1.12.03,1.67.06.76.05,1.55.15,2.18.55,1,.6,1.05,1.89.18,2.63Z" style="fill: #f8f9fa; stroke-width: 0px;"/>
      <path d="m53.01,26.7c-.15,4.37-.92,8.26-2.24,11.63.78-8.23-3.59-19.33-3.76-19.81-.29-2.99.82-6.62-1.49-8.99-.08-.1-.17-.18-.26-.26-.21-.21-.43-.39-.64-.54-2.49-1.91-5-.81-7.46.58-.05.03-.11.07-.17.11-.29.17-.55.34-.84.5-.03.02-.06.04-.08.05-.14.1-.29.19-.44.27-.31.19-.63.37-.95.53,0,.01-.01.01-.01.01-.01,0-.03,0-.03.01-.14.07-.27.13-.4.19-.03.01-.05.02-.08.03-.17.07-.32.15-.48.21-.69.27-1.42.47-2.19.53-1.95.26-3.97.11-5.94.16-1.18,0-2.41-.01-3.61-.17-.02,0-.06,0-.08-.01-.71-.08-1.38-.26-2.01-.51-.17-.06-.33-.14-.49-.21-.04-.02-.08-.04-.13-.06-.13-.06-.25-.12-.37-.17,0,0-.01,0-.01-.01-.33-.16-.64-.34-.96-.53-.15-.08-.29-.17-.44-.27-.03-.02-.06-.03-.08-.05-.26-.15-.52-.31-.78-.48-2.74-1.56-5.55-2.89-8.33-.17-2.65,2.36-1.44,6.14-1.74,9.25h.01c0,.31-5.23,13.08-3.55,21.47C1.21,36.26.2,31.8.02,26.7c-.25-6.83,2.29-13.35,7.15-18.4C12.21,3.08,19.25.06,26.52,0c7.26.06,14.3,3.08,19.34,8.3,4.86,5.05,7.4,11.57,7.15,18.4Z" style="fill: #f8f9fa; stroke-width: 0px;"/>
    </g>
  </g>
</svg>