<?xml version="1.0" encoding="UTF-8"?>
<svg id="uuid-f03200b1-6cb1-430f-9ca7-48e43e6ee0ec" data-name="圖層 2" xmlns="http://www.w3.org/2000/svg" viewBox="0 0 57.02 57.45">
  <g id="uuid-41b35e1d-7119-469a-a506-ee00eb952265" data-name="圖層 1">
    <g>
      <path d="m49.3,8.91C43.94,3.36,36.47.13,28.75.01h0s-.48-.01-.48-.01h0c-7.72.13-15.18,3.36-20.54,8.91C2.5,14.35-.24,21.4.02,28.76c.66,18.07,10.95,28.5,28.25,28.68h0s.48.01.48.01h0c17.31-.19,27.6-10.62,28.26-28.69.26-7.36-2.48-14.41-7.71-19.85Zm-38.39,1.81c.57-.42,1.21-.72,1.89-.87-.68.17-1.32.47-1.89.87Zm8.33,19.52c0,.13-.02.26-.05.39h0s0,.05-.01.07c-.12.79-.37,1.39-.68,1.81-.04.07-.09.12-.14.18-.55.63-1.26.79-1.87.52-.12-.04-.21-.09-.31-.17-.05-.03-.11-.07-.16-.13-.05-.05-.1-.1-.16-.15s-.1-.1-.14-.16h0c-.09-.14-.17-.27-.24-.42-.04-.07-.07-.15-.1-.25-.07-.17-.13-.36-.16-.57-.02-.07-.04-.15-.05-.22v-.05c-.02-.06-.02-.12-.03-.2v-.06s.01.09.02.13c-.02-.19-.05-.37-.05-.57v-.09c0-.14.01-.27.03-.39.01-.14.03-.26.05-.38.02-.1.04-.2.06-.31.02-.1.04-.19.07-.28.05-.13.09-.26.14-.37.01-.02.02-.04.03-.06.06-.14.13-.27.2-.4,0-.02.02-.04.03-.05.07-.1.14-.19.22-.28.09-.1.18-.2.27-.29.12-.11.26-.19.39-.26.01,0,.01-.01.02-.01.78-.44,1.68-.27,2.17.65.01.01.02.02.03.04.36.69.47,1.53.42,2.33Zm15.74,11.47c-.06.12-.13.26-.21.38-1.16,2.07-3.18,3.55-5.64,3.75h-.02c-.06.01-.11.01-.15.01-.13.01-.25.01-.38.01h-.07s-.02-.01-.03-.01c-1.06.02-2.13-.21-3.14-.74-.01-.01-.02-.01-.03-.02-.1-.06-.21-.1-.32-.16-.19-.12-.39-.24-.58-.4-.12-.08-.23-.17-.35-.26-.09-.08-.18-.16-.27-.25-.2-.18-.39-.37-.57-.58-.11-.13-.23-.26-.33-.39-.04-.04-.08-.09-.11-.14-.03-.04-.07-.08-.1-.13-.03-.04-.06-.09-.09-.14-.01-.01-.02-.03-.02-.04-.77-1.13-1.25-2.47-1.37-3.87,0-.02,0-.05,0-.07,0,0-.01-.02,0-.02-.3-1.87-.28-3.91.07-5.74.04-.3.1-.61.18-.92,0-.01,0-.03,0-.04,0-.04.01-.07.02-.1,0-.02.01-.04.01-.06h0s.02-.09.04-.12c.22-.86.56-1.61,1.02-2.27.07-.13.16-.27.26-.4.04-.05.08-.11.12-.16.65-.83,1.46-1.46,2.34-1.91.29-.14.6-.27.9-.37.01,0,.01,0,.02,0,.12-.04.26-.09.38-.12,0,0,.02,0,.03,0,.13-.04.26-.08.4-.1.13-.04.26-.06.4-.08.19-.04.38-.06.57-.07.37-.03.74-.03,1.1,0,.13,0,.25.01.38.03,0,0,.03,0,.04.01.03-.01.06,0,.09.01h.04c.06,0,.12.02.17.03.02,0,.04,0,.06.01.04.01.08.02.12.02.05,0,.1.03.15.03.02.01.04.01.06.02.15.03.29.07.42.1.01.01.02.01.03.01.21.07.41.14.6.22.1.03.19.07.27.11.04.02.09.04.13.06.65.31,1.26.72,1.81,1.24.26.23.48.49.7.78.04.04.07.09.1.13.12.15.23.32.33.48.09.13.17.26.24.41.03.04.06.09.08.14.07.13.13.26.19.4,0,0,.01.02.01.03.09.16.15.33.21.51.09.22.16.46.22.7.04.12.07.25.1.39.01.04.02.09.03.13v.02c.04.18.08.37.11.56.03.18.06.38.08.57.03.19.05.4.06.59.02.2.03.41.04.61.02.19.02.39.02.59.01.2.01.4.01.6,0,.45-.01.9-.02,1.35.13,1.73-.25,3.31-.96,4.64Zm6.92-11h0s0,.08-.01.11c-.09,1.15-.56,1.93-1.15,2.29-.03,0-.06.03-.09.05-.38.2-.8.23-1.21.09-.06-.01-.11-.04-.17-.07-.06-.03-.12-.09-.19-.13-.18-.1-.34-.25-.48-.44l-.02-.02s-.03-.05-.05-.07h0c-.05-.07-.11-.13-.14-.2-.25-.41-.44-.95-.55-1.62v-.07c-.03-.13-.04-.26-.06-.4-.01-.09-.01-.17-.01-.26v-.05c0-.13.01-.26.02-.38.02-.57.16-1.13.42-1.63.16-.32.37-.55.6-.7.41-.27.9-.29,1.37-.1.01,0,.02,0,.03,0,.46.18.89.58,1.2,1.14t.01.02s.03.06.05.09c.02.02.02.04.03.07h0s.02.05.03.07c.01.01.01.03.01.04.01.02.02.04.03.06.04.12.08.23.12.35.14.43.2.89.21,1.34,0,.15,0,.28-.01.41Zm13.11-2.02c-.15,4.37-.92,8.26-2.24,11.63.78-8.23-3.59-19.33-3.76-19.81-.29-2.99.82-6.62-1.49-8.99-.08-.1-.17-.18-.26-.26-.21-.21-.43-.39-.64-.54-.58-.4-1.21-.7-1.9-.87.69.15,1.32.45,1.9.87-2.49-1.91-5-.81-7.46.58-.05.03-.11.07-.17.11-.29.17-.55.34-.84.5-.03.02-.06.04-.08.05-.14.1-.29.19-.44.27-.31.19-.63.37-.95.53,0,.01-.01.01-.01.01-.01,0-.03,0-.03.01-.14.07-.27.13-.4.19-.03.01-.05.02-.08.03-.17.07-.32.15-.48.21-.69.27-1.42.47-2.19.53-1.95.26-3.97.11-5.94.16-1.18,0-2.41-.01-3.61-.17-.02,0-.06,0-.08-.01-.71-.08-1.38-.26-2.01-.51-.17-.06-.33-.14-.49-.21-.04-.02-.08-.04-.13-.06-.13-.06-.25-.12-.37-.17,0,0-.01,0-.01-.01-.33-.16-.64-.34-.96-.53-.15-.08-.29-.17-.44-.27-.03-.02-.06-.03-.08-.05-.26-.15-.52-.31-.78-.48-2.74-1.56-5.55-2.89-8.33-.17-2.65,2.36-1.44,6.14-1.74,9.25h.01c0,.31-5.23,13.08-3.55,21.47-1.77-3.73-2.78-8.19-2.96-13.29-.25-6.83,2.29-13.35,7.15-18.4C14.21,5.07,21.25,2.05,28.52,1.99c7.26.06,14.3,3.08,19.34,8.3,4.86,5.05,7.4,11.57,7.15,18.4Z" style="fill: #545454; stroke-width: 0px;"/>
      <path d="m32.54,34.19h-.01c-.58.52-1.63.97-2.42,1.36-.28.14-.51.38-.61.66l-.28.69c-.09.24-.09.5-.01.75.03.07.08.13.15.18.06.05.14.08.22.09.95.08,2.11.26,2,.8-.04.22-.24.35-.46.32-.85-.15-1.73-.21-2.61-.21s-1.8.07-2.67.22c-.2,0-.36-.14-.4-.33-.1-.54,1.06-.72,1.99-.8.18-.01.32-.12.38-.27h0c.09-.25.09-.51-.01-.75l-.27-.69c-.13-.29-.34-.53-.62-.66-.41-.19-.82-.4-1.22-.59-1-.5-1.98-1.14-1.8-2.31.12-.87,1.03-1.36,1.84-1.51.92-.15,1.86-.2,2.78-.19.56,0,1.12.03,1.67.06.76.05,1.55.15,2.18.55,1,.6,1.05,1.89.18,2.63Z" style="fill: #545454; stroke-width: 0px;"/>
    </g>
  </g>
</svg>