<?xml version="1.0" encoding="UTF-8"?>
<svg id="uuid-bb911192-e58b-4120-836a-1b69a50168ad" data-name="圖層 2" xmlns="http://www.w3.org/2000/svg" viewBox="0 0 32 32">
  <path d="m1.39,27.44c-.34-.34-.51-.93-.51-1.75,0-.58.46-1.22,1.39-1.9,3.85-2.78,5.78-5.04,5.78-6.8,0-.44-.12-.66-.37-.66-.15,0-.33.02-.55.07s-.43.07-.62.07c-4.34,0-6.51-2.05-6.51-6.14,0-1.95.62-3.48,1.86-4.61s2.91-1.68,5.01-1.68c4.68,0,7.02,2.78,7.02,8.33,0,3.85-1.41,7.48-4.24,10.89-2.53,3.12-4.75,4.68-6.65,4.68-.73,0-1.27-.17-1.61-.51Z" style="fill: currentcolor; stroke-width: 0px;"/>
  <path d="m19.5,27.44c-.34-.34-.51-.93-.51-1.75,0-.58.46-1.22,1.39-1.9,3.85-2.78,5.78-5.04,5.78-6.8,0-.44-.12-.66-.37-.66-.15,0-.33.02-.55.07s-.43.07-.62.07c-4.34,0-6.51-2.05-6.51-6.14,0-1.95.62-3.48,1.86-4.61s2.91-1.68,5.01-1.68c4.68,0,7.02,2.78,7.02,8.33,0,3.85-1.41,7.48-4.24,10.89-2.53,3.12-4.75,4.68-6.65,4.68-.73,0-1.27-.17-1.61-.51Z" style="fill: currentcolor; stroke-width: 0px;"/>
</svg>